# xmcd
#
# Track frame offsets: 
#        150
#        14240
#        28937
#        44717
#        59112
#        72927
#        87087
#        100280
#        111340
#        125445
#        140295
#        155457
#        177737
#
# Disc length: 2854 seconds
#
# Revision: 3
# Processed by: cddbd v1.5.2PL0 Copyright (c) Steve Scherf et al.
# Submitted via: ExactAudioCopy v0.95b3
#
DISCID=c80b240d
DTITLE=Jo-El Sonnier - Here To Stay
DYEAR=1998
DGENRE=
TTITLE0=We're Here To Stay
TTITLE1=Boken Hearted Side Of New Orleans
TTITLE2=Can't Give My Heat Away
TTITLE3=Polk Salad Annie
TTITLE4=I Can Help
TTITLE5=Jambalaya
TTITLE6=Diggy Diggy Lo
TTITLE7=The Big Mamou
TTITLE8=La Jolie Blonde
TTITLE9=Johnny B. Goode
TTITLE10=C'est La Vie
TTITLE11=Whiter Shade Of Pale
TTITLE12=Cajun Medley - No More One More Time, Raining In My Heart, Te
TTITLE12=ar Stained Letter, Sugar Bee
EXTD=
EXTT0=
EXTT1=
EXTT2=
EXTT3=
EXTT4=
EXTT5=
EXTT6=
EXTT7=
EXTT8=
EXTT9=
EXTT10=
EXTT11=
EXTT12=
PLAYORDER=
